<?xml version="1.0" encoding="UTF-8"?>
<svg xmlns="http://www.w3.org/2000/svg" xmlns:xlink="http://www.w3.org/1999/xlink" width="512" height="512" viewBox="0 0 60 60" version="1.1"><!-- Generator: Sketch 51.3 (57544) - http://www.bohemiancoding.com/sketch --><title>045 - Analyse</title><desc>Created with Sketch.</desc><defs/><g id="Page-1" stroke="none" stroke-width="1" fill="none" fill-rule="evenodd"><g id="045---Analyse" transform="translate(-1.000000, -1.000000)" fill-rule="nonzero"><path d="M47.26,38.71 C45.9803538,41.6319437 45.5006323,44.8415908 45.87,48.01 C46.0951005,50.0721875 46.5033794,52.1102353 47.09,54.1 C47.4048963,55.1305317 47.802868,56.1338218 48.28,57.1 C48.8718004,58.0090608 49.4061765,58.9542385 49.88,59.93 L24.78,60 L24.78,59.99 C24.7,59.69 23.19,53.81 19.85,52.3 C19.23,52.52 18.57,52.74 17.9,52.97 C15.6789002,53.7404523 13.4191713,54.3946722 11.13,54.93 C10.4993821,55.0806865 9.83512584,54.9878335 9.27,54.67 C8.62676625,54.2742562 8.14753634,53.660132 7.92,52.94 C7.65806229,52.2276891 7.56229323,51.4649569 7.64,50.71 C7.87036773,49.9391054 7.94848689,49.1307419 7.87,48.33 C7.61,47.32 6.65,47.07 5.89,46.53 C5.27,46.09 6.38,44.68 6.38,44.68 C6.38,44.68 5.2,43.81 4.78,43.43 C4.34,43.07 4.96,42.45 5.51,41.28 C5.73694079,40.7719796 5.80323378,40.2067446 5.7,39.66 C5.49,38.59 3.87,38.18 3.07,37.59 C2.69,37.31 2.08,36.89 2.01,36.38 C1.9,35.67 2.74,34.67 3.15,34.17 C4.89454657,31.9217816 6.38996718,29.4908848 7.61,26.92 C7.77010631,26.6486227 7.86589137,26.3441631 7.89,26.03 C7.87,24.6 5.8,24.01 5.61,22.62 C5.58022555,22.2120559 5.65239212,21.803112 5.82,21.43 C6.39667192,20.2042401 6.89109856,18.9414478 7.3,17.65 C7.54612792,16.4653226 7.86336869,15.2965408 8.25,14.15 C9.08859812,11.8496676 10.3808376,9.74127689 12.05,7.95 C14.5,5.36 18.12,4.08 21.54,3.4 C24.5813721,2.73504394 27.6655865,2.28393999 30.77,2.05 C30.87,2.04 30.97,2.04 31.07,2.03 C37.47,1.71 42.53,3.88 47.49,7.76 C50.1927291,9.77631392 52.1683037,12.6151058 53.12,15.85 C53.8451888,18.5213389 54.1852867,21.2825294 54.13,24.05 C54.110834,26.7831121 53.3129958,29.4541358 51.83,31.75 C50.34,34.1 48.39,36.14 47.26,38.71 Z" id="Shape" fill="#A4C2F7"/><path d="M44.26,38.71 C42.9803538,41.6319437 42.5006323,44.8415908 42.87,48.01 C43.0951005,50.0721875 43.5033794,52.1102353 44.09,54.1 C44.4048963,55.1305317 44.802868,56.1338218 45.28,57.1 C45.8718004,58.0090608 46.4061765,58.9542385 46.88,59.93 L27.65,59.98 L24.78,59.99 C24.71,59.72 23.5,55.02 20.87,52.93 C20.5569122,52.679263 20.2143771,52.4676972 19.85,52.3 C19.82,52.31 19.8,52.32 19.77,52.33 C19.17,52.54 18.54,52.75 17.9,52.97 C17.89,52.96 17.87,52.95 17.86,52.94 C17.5556688,52.6794682 17.215538,52.4639398 16.85,52.3 C15.16,52.89 13.21,53.54 11.43,54.07 C10.67,54.3 9.94,54.5 9.27,54.67 C8.62676625,54.2742562 8.14753634,53.660132 7.92,52.94 C7.65806229,52.2276891 7.56229323,51.4649569 7.64,50.71 C7.87036773,49.9391054 7.94848689,49.1307419 7.87,48.33 C7.61,47.32 6.65,47.07 5.89,46.53 C5.27,46.09 6.38,44.68 6.38,44.68 C6.38,44.68 5.2,43.81 4.78,43.43 C4.34,43.07 4.96,42.45 5.51,41.28 C5.73694079,40.7719796 5.80323378,40.2067446 5.7,39.66 C5.49,38.59 3.87,38.18 3.07,37.59 C2.69,37.31 2.08,36.89 2.01,36.38 C1.9,35.67 2.74,34.67 3.15,34.17 C4.89454657,31.9217816 6.38996718,29.4908848 7.61,26.92 C7.77010631,26.6486227 7.86589137,26.3441631 7.89,26.03 C7.87,24.6 5.8,24.01 5.61,22.62 C5.58022555,22.2120559 5.65239212,21.803112 5.82,21.43 C6.39667192,20.2042401 6.89109856,18.9414478 7.3,17.65 C7.54612792,16.4653226 7.86336869,15.2965408 8.25,14.15 C9.08859812,11.8496676 10.3808376,9.74127689 12.05,7.95 C14.5,5.36 18.12,4.08 21.54,3.4 C24.5813721,2.73504394 27.6655865,2.28393999 30.77,2.05 C31.22,2.08 31.66,2.12 32.09,2.18 C36.6646239,2.84104823 40.9613464,4.77457335 44.49,7.76 C47.1927291,9.77631392 49.1683037,12.6151058 50.12,15.85 C50.8451888,18.5213389 51.1852867,21.2825294 51.13,24.05 C51.110834,26.7831121 50.3129958,29.4541358 48.83,31.75 C47.34,34.1 45.39,36.14 44.26,38.71 Z" id="Shape" fill="#FFFFFF"/><path d="M44.26,38.71 C42.9803538,41.6319437 42.5006323,44.8415908 42.87,48.01 C43.0951005,50.0721875 43.5033794,52.1102353 44.09,54.1 C44.4048963,55.1305317 44.802868,56.1338218 45.28,57.1 C45.8718004,58.0090608 46.4061765,58.9542385 46.88,59.93 L27.65,59.98 C27.55,59.6 26.03,53.8 22.72,52.3 C22.13,52.51 21.51,52.72 20.87,52.93 C20.8385311,52.9475899 20.8049188,52.9610348 20.77,52.97 C20.4691967,52.7096627 20.1323908,52.4941069 19.77,52.33 C19.75,52.32 19.74,52.31 19.72,52.3 C19.13,52.51 18.5,52.72 17.86,52.94 C15.91,53.59 13.82,54.25 12.14,54.67 C11.8682142,54.5157011 11.6274621,54.3122486 11.43,54.07 C11.1453175,53.7384628 10.9279367,53.3546498 10.79,52.94 C10.5280623,52.2276891 10.4322932,51.4649569 10.51,50.71 C10.7403677,49.9391054 10.8184869,49.1307419 10.74,48.33 C10.48,47.32 9.52,47.07 8.76,46.53 C8.14,46.09 9.25,44.68 9.25,44.68 C9.25,44.68 8.07,43.81 7.65,43.43 C7.21,43.07 7.83,42.45 8.38,41.28 C8.60694079,40.7719796 8.67323378,40.2067446 8.57,39.66 C8.36,38.59 6.74,38.18 5.94,37.59 C5.56,37.31 4.95,36.89 4.88,36.38 C4.77,35.67 5.61,34.67 6.02,34.17 C7.76454657,31.9217816 9.25996718,29.4908848 10.48,26.92 C10.6401063,26.6486227 10.7358914,26.3441631 10.76,26.03 C10.74,24.6 8.67,24.01 8.48,22.62 C8.45022555,22.2120559 8.52239212,21.803112 8.69,21.43 C9.26667192,20.2042401 9.76109856,18.9414478 10.17,17.65 C10.4161279,16.4653226 10.7333687,15.2965408 11.12,14.15 C11.9585981,11.8496676 13.2508376,9.74127689 14.92,7.95 C17.37,5.36 20.99,4.08 24.41,3.4 C26.9456224,2.85244071 29.5095166,2.44515544 32.09,2.18 C36.6646239,2.84104823 40.9613464,4.77457335 44.49,7.76 C47.1927291,9.77631392 49.1683037,12.6151058 50.12,15.85 C50.8451888,18.5213389 51.1852867,21.2825294 51.13,24.05 C51.110834,26.7831121 50.3129958,29.4541358 48.83,31.75 C47.34,34.1 45.39,36.14 44.26,38.71 Z" id="Shape" fill="#E8EDFC"/><path d="M56.19,24.19 C53.7553773,26.6318121 50.4481626,28.0029207 47,28 C46.66,28 46.33,27.99 46,27.96 L42,27 C40.5132272,26.3825143 39.156195,25.4902656 38,24.37 L36.76,23 C33.6967939,19.0853585 33.1354474,13.7661294 35.3140399,9.29831278 C37.4926323,4.83049621 42.0293218,1.99716646 47,2 L47,15 L56.19,24.19 Z" id="Shape" fill="#A4C2F7"/><path d="M60.0000047,15 C60.0029207,18.4481626 58.6318121,21.7553773 56.19,24.19 L47,15 L60.0000047,15 Z" id="Shape" fill="#FFFFFF"/><path d="M60,15 L47,15 L47,2 C54.1797017,2 60,7.82029825 60,15 Z" id="Shape" fill="#A4C2F7"/><path d="M43,19 L45,19 C45.5522847,19 46,19.4477153 46,20 L46,33 L42,33 L42,20 C42,19.4477153 42.4477153,19 43,19 Z" id="Shape" fill="#A4C2F7"/><path d="M35,23 L37,23 C37.5522847,23 38,23.4477153 38,24 L38,33 L34,33 L34,24 C34,23.4477153 34.4477153,23 35,23 Z" id="Shape" fill="#FFFFFF"/><path d="M27,27 L29,27 C29.5522847,27 30,27.4477153 30,28 L30,33 L26,33 L26,28 C26,27.4477153 26.4477153,27 27,27 Z" id="Shape" fill="#A4C2F7"/><path d="M56.19,24.19 C53.7553773,26.6318121 50.4481626,28.0029207 47,28 C46.66,28 46.33,27.99 46,27.96 L45.69,27.89 C49.2599764,27.4257007 52.4764517,25.4987132 54.57,22.57 L56.19,24.19 Z" id="Shape" fill="#7FACFA"/><path d="M60.0000047,15 C60.0029207,18.4481626 58.6318121,21.7553773 56.19,24.19 L54.57,22.57 C56.1541336,20.364097 57.0042533,17.7157815 57,15 L60.0000047,15 Z" id="Shape" fill="#E8EDFC"/><path d="M60,15 L57,15 C57.0004121,8.97563266 52.8617607,3.74023861 47,2.35 L47,2 C54.1797017,2 60,7.82029825 60,15 Z" id="Shape" fill="#7FACFA"/><path d="M4.885,21.074 C5.305,19.983 5.811,19.033 6.126,18.107 C6.204,17.877 6.272,17.649 6.326,17.423 L6.511,16.632 C6.636,16.1 6.767,15.558 6.923,15.012 C7.56346558,12.8108928 8.59047178,10.7413043 9.956,8.9 C10.3793703,8.32910856 10.8358188,7.78350741 11.323,7.266 L12.777,8.638 C12.3440873,9.09899293 11.9384,9.58481605 11.562,10.093 C10.3407465,11.740536 9.42118943,13.5915001 8.846,15.56 C8.705,16.06 8.581,16.567 8.458,17.09 L8.273,17.881 C8.201,18.181 8.114,18.474 8.018,18.756 C7.628,19.883 7.108,20.856 6.755,21.786 L4.885,21.074 Z" id="Shape" fill="#FFFFFF"/><path d="M7.513,16.739 C6.97947131,16.6175667 6.44660839,16.9443893 6.313,17.475 C5.90884796,18.7022696 5.43200475,19.9043953 4.885,21.075 L6.755,21.787 C7.33737032,20.5420918 7.83842105,19.260738 8.255,17.951 C8.31868433,17.691802 8.27610737,17.4179011 8.13674647,17.1902658 C7.99738557,16.9626305 7.77280686,16.8001531 7.513,16.739 Z" id="Shape" fill="#428DFF"/><path d="M12.777,8.636 L11.323,7.264 C10.8357572,7.78215357 10.3793077,8.32842388 9.956,8.9 C9.74466667,9.18266667 9.54266667,9.47133333 9.35,9.766 C9.19577342,9.98986572 9.14146537,10.2677355 9.2000561,10.5331951 C9.25864684,10.7986548 9.42487134,11.0278498 9.659,11.166 C10.1217884,11.4363395 10.7146211,11.3057596 11.021,10.866 C11.193,10.5993333 11.3733333,10.3416667 11.562,10.093 C11.9383376,9.58413147 12.3440261,9.09763922 12.777,8.636 Z" id="Shape" fill="#428DFF"/><path d="M7.428,13.5 C7.32893401,13.7585724 7.33467447,14.0455955 7.444,14.3 L7.544,14.466 C7.58465947,14.5204844 7.63280027,14.5689618 7.687,14.61 C7.73213663,14.6547458 7.78370602,14.6924959 7.84,14.722 C7.89961618,14.7528975 7.96145447,14.7793041 8.025,14.801 C8.27732655,14.8750857 8.54777802,14.8570083 8.788,14.75 C8.90019081,14.6936515 9.00170824,14.6181902 9.088,14.527 C9.35003296,14.2456908 9.424242,13.837541 9.278,13.482 C9.22440304,13.3633266 9.14988143,13.2552703 9.058,13.163 C8.9680284,13.0679635 8.86078575,12.9909252 8.742,12.936 C8.49819435,12.82929 8.22203842,12.8235368 7.974,12.92 C7.72370365,13.0352565 7.52794474,13.2432056 7.428,13.5 Z" id="Shape" fill="#428DFF"/><path d="M10.51,56 C8.86087491,55.9693546 7.42607373,54.8630997 6.977,53.276 C6.66180736,52.4152066 6.54956038,51.4932757 6.649,50.582 C6.682,50.319 6.74,50.051 6.798,49.782 C6.91954191,49.394293 6.95369328,48.9844766 6.898,48.582 C6.817,48.269 6.586,48.112 5.998,47.775 C5.764,47.643 5.527,47.506 5.305,47.35 C4.97965396,47.1182191 4.76494566,46.7619409 4.712,46.366 C4.67373033,45.8632085 4.78729954,45.3605079 5.038,44.923 C4.697,44.662 4.324,44.368 4.108,44.173 C3.183,43.418 3.796,42.335 4.163,41.688 C4.297,41.45 4.454,41.175 4.603,40.855 C4.74079442,40.5375542 4.78015866,40.1860629 4.716,39.846 C4.666,39.587 3.941,39.217 3.508,38.995 C3.1463953,38.8239078 2.79954825,38.6232248 2.471,38.395 C1.75491391,37.9888454 1.2318101,37.312269 1.019,36.517 C0.86,35.488 1.619,34.46 2.342,33.578 C4.05403523,31.3721378 5.52194066,28.9872106 6.72,26.465 C6.79591349,26.3282777 6.85309275,26.1819661 6.89,26.03 C6.89,25.755 6.565,25.439 6.076,24.99 C5.33769985,24.4445732 4.82048502,23.6515341 4.619,22.756 C4.56294901,22.1857868 4.65311901,21.6106949 4.881,21.085 C4.99808657,20.7416197 5.2919658,20.4885873 5.6489291,20.4238069 C6.00589239,20.3590265 6.36994241,20.4926602 6.60021988,20.7730021 C6.83049735,21.053344 6.89087832,21.4364164 6.758,21.774 C6.66112003,21.9951493 6.60716227,22.2326991 6.599,22.474 C6.643,22.798 7.025,23.148 7.429,23.519 C8.25473785,24.1017313 8.78760356,25.013548 8.89,26.019 C8.87135419,26.4934269 8.73897076,26.956426 8.504,27.369 C7.25068748,30.0044113 5.71502777,32.4960025 3.924,34.8 C3.162,35.731 3,36.1 3,36.249 C3.18487123,36.4285354 3.38569965,36.5908717 3.6,36.734 C3.86055542,36.9167929 4.13622025,37.0770398 4.424,37.213 C5.278,37.649 6.447,38.247 6.687,39.468 C6.83018406,40.2237094 6.73695159,41.0051861 6.42,41.706 C6.246,42.076 6.066,42.396 5.909,42.672 C5.86,42.758 5.809,42.854 5.759,42.941 C6.173,43.274 6.739,43.698 6.979,43.875 C7.19653158,44.03646 7.33924808,44.2792679 7.37449617,44.5478696 C7.40974425,44.8164714 7.33450751,45.0878809 7.166,45.3 C7.01745938,45.4932548 6.88817724,45.7005751 6.78,45.919 C6.849,45.959 6.918,45.999 6.988,46.038 C7.87185426,46.4188803 8.54685539,47.1646653 8.838,48.082 C8.98493295,48.7875986 8.95539225,49.5185593 8.752,50.21 C8.706,50.419 8.659,50.628 8.632,50.838 C8.57354163,51.4428017 8.65391662,52.0529676 8.867,52.622 C9.08790242,53.5437662 9.99373144,54.1296061 10.925,53.953 C13.8394025,53.252886 16.7108654,52.3847693 19.525,51.353 C19.8643892,51.2281245 20.2447562,51.2962158 20.5197476,51.5310745 C20.7947391,51.7659332 20.921504,52.1309622 20.8512673,52.4857096 C20.7810305,52.840457 20.5247368,53.1296438 20.181,53.242 C17.2871037,54.3039279 14.3329485,55.1938141 11.334,55.907 C11.0633364,55.9667008 10.7871614,55.9978711 10.51,56 Z M5.41,42.659 L5.442,42.688 L5.41,42.659 Z" id="Shape" fill="#428DFF"/><path d="M12.05,8.95 C11.6505745,8.95013686 11.2893784,8.71257247 11.1313026,8.34575817 C10.9732267,7.97894386 11.0485947,7.55324547 11.323,7.263 C13.559,4.9 16.837,3.315 21.345,2.42 C24.5306187,1.72068008 27.7633257,1.25642965 31.017,1.031 C34.4441465,0.833718032 37.8714847,1.41491255 41.042,2.731 C41.3845318,2.85884522 41.6299893,3.16343152 41.6821117,3.52530948 C41.7342341,3.88718745 41.5847116,4.24866392 41.2921824,4.46797891 C40.9996532,4.68729389 40.6107543,4.72948263 40.278,4.578 C37.3819234,3.3766476 34.2509234,2.8483747 31.121,3.033 C27.9653792,3.25303911 24.8300406,3.70323643 21.74,4.38 C17.705,5.18 14.69,6.614 12.776,8.638 C12.5875125,8.83785616 12.324717,8.95079308 12.05,8.95 Z" id="Shape" fill="#428DFF"/><path d="M24.78,61 C24.3191958,60.9997651 23.9182106,60.6846758 23.809,60.237 C23.42,58.657 21.879,54.314 19.438,53.211 C19.0639436,53.0419148 18.8312137,52.6614066 18.8510746,52.25139 C18.8709354,51.8413735 19.1393525,51.4851405 19.528,51.353 C20.588,50.993 21.546,50.653 22.295,50.396 C22.969,50.161 23.476,49.984 23.743,49.896 C27.902,48.582 28.743,47.081 28.721,46.052 C28.7126042,45.6947344 28.8954452,45.3601283 29.2006484,45.1742246 C29.5058516,44.9883208 29.8870495,44.9793627 30.2006484,45.1507246 C30.5142474,45.3220864 30.7126043,45.6477344 30.721,46.005 C30.779,48.498 28.637,50.448 24.352,51.805 C24.1,51.887 23.608,52.059 22.952,52.286 L22.013,52.614 C23.6649911,54.4418569 24.8708746,56.6277134 25.536,59 L48.218,58.937 C48.196,58.903 48.175,58.87 48.153,58.837 C47.8637076,58.4190259 47.6040712,57.9812863 47.376,57.527 C46.878203,56.5190177 46.4631695,55.4722371 46.135,54.397 C45.5282586,52.3503716 45.1072219,50.2532207 44.877,48.131 C44.4831254,44.7858591 44.989208,41.3962101 46.343,38.312 C46.6228997,37.6763202 46.9459884,37.0605473 47.31,36.469 C47.5969119,35.9970727 48.2120727,35.8470881 48.684,36.134 C49.1559273,36.4209119 49.3059119,37.0360727 49.019,37.508 C48.701988,38.0215687 48.4203358,38.55614 48.176,39.108 C46.9644756,41.8655812 46.5111988,44.8966322 46.863,47.888 C47.0785059,49.891581 47.4744461,51.8716166 48.046,53.804 C48.344388,54.7817639 48.7219713,55.7335816 49.175,56.65 C49.3662231,57.0255796 49.5827208,57.3877455 49.823,57.734 C50.2478059,58.316716 50.5884808,58.9563229 50.835,59.634 C50.9304293,59.9374437 50.8757998,60.2681879 50.6878608,60.5248273 C50.4999218,60.7814667 50.201095,60.9333833 49.883,60.934 L24.783,61.004 L24.78,61 Z" id="Shape" fill="#428DFF"/><path d="M11.194,19.566 C10.8888508,19.5660321 10.6003862,19.4267344 10.4106651,19.1877325 C10.2209439,18.9487305 10.1507311,18.6361832 10.22,18.339 L10.32,17.906 C10.5128846,16.9898189 10.7599859,16.0858957 11.06,15.199 C11.7551734,13.2744666 12.8324398,11.51043 14.227,10.013 C15.7596052,8.53568316 17.6469016,7.47803948 19.707,6.942 C20.2355365,6.78073285 20.7947329,7.07846349 20.956,7.607 C21.1172671,8.13553651 20.8195365,8.69473285 20.291,8.856 C18.5638104,9.29316632 16.9769597,10.1643852 15.681,11.387 C14.4727627,12.6871933 13.5391511,14.2177041 12.936,15.887 C12.6668893,16.6960482 12.4438648,17.5197032 12.268,18.354 L12.168,18.791 C12.0632698,19.2445327 11.6594679,19.565833 11.194,19.566 Z" id="Shape" fill="#A4C2F7"/><circle id="Oval" fill="#A4C2F7" cx="10" cy="22" r="1"/><path d="M42,28 C41.8688904,28.0002115 41.7390446,27.9743783 41.618,27.924 C40.01435,27.2600173 38.5509117,26.2984165 37.305,25.09 C36.907355,24.7061621 36.8961621,24.072645 37.28,23.675 C37.6638379,23.277355 38.297355,23.2661621 38.695,23.65 C39.7596968,24.6843364 41.0107706,25.5075274 42.382,26.076 C42.8228033,26.258424 43.0733662,26.7268174 42.9804619,27.1947435 C42.8875577,27.6626696 42.4770598,27.9998129 42,28 Z" id="Shape" fill="#428DFF"/><path d="M47,29 C46.629,29 46.269,28.989 45.909,28.956 C45.5531635,28.9234888 45.2417014,28.7036108 45.0919387,28.3791917 C44.9421759,28.0547726 44.9768649,27.6750996 45.1829387,27.3831917 C45.3890124,27.0912838 45.7351635,26.9314888 46.091,26.964 C46.391,26.991 46.691,27 47,27 C53.627417,27 59,21.627417 59,15 C59,8.372583 53.627417,3 47,3 C40.372583,3 35,8.372583 35,15 C34.9883644,17.6779594 35.8859898,20.2805795 37.546,22.382 C37.7740071,22.6622095 37.8331582,23.0436098 37.7007354,23.3797182 C37.5683126,23.7158265 37.2649057,23.9543831 36.9070427,24.0037666 C36.5491798,24.0531501 36.1925031,23.9056821 35.974,23.618 C34.0354278,21.1649591 32.9868973,18.1265477 33,15 C33,7.2680135 39.2680135,1 47,1 C54.7319865,1 61,7.2680135 61,15 C61,22.7319865 54.7319865,29 47,29 Z" id="Shape" fill="#428DFF"/><path d="M47,16 C46.4477153,16 46,15.5522847 46,15 L46,2 C46,1.44771525 46.4477153,1 47,1 C47.5522847,1 48,1.44771525 48,2 L48,15 C48,15.5522847 47.5522847,16 47,16 Z" id="Shape" fill="#428DFF"/><path d="M60,16 L47,16 C46.4477153,16 46,15.5522847 46,15 C46,14.4477153 46.4477153,14 47,14 L60,14 C60.5522847,14 61,14.4477153 61,15 C61,15.5522847 60.5522847,16 60,16 Z" id="Shape" fill="#428DFF"/><path d="M56.192,25.192 C55.9268052,25.1919434 55.6724927,25.0865494 55.485,24.899 L46.293,15.707 C45.9140278,15.3146211 45.9194476,14.6909152 46.3051814,14.3051814 C46.6909152,13.9194476 47.3146211,13.9140278 47.707,14.293 L56.9,23.485 C57.1859079,23.7709943 57.2714219,24.2010366 57.116678,24.5746546 C56.9619341,24.9482725 56.5973959,25.1919137 56.193,25.192 L56.192,25.192 Z" id="Shape" fill="#428DFF"/><path d="M46,34 L42,34 C41.4477153,34 41,33.5522847 41,33 L41,20 C41,18.8954305 41.8954305,18 43,18 L45,18 C46.1045695,18 47,18.8954305 47,20 L47,33 C47,33.5522847 46.5522847,34 46,34 Z M43,32 L45,32 L45,20 L43,20 L43,32 Z" id="Shape" fill="#428DFF"/><path d="M38,34 L34,34 C33.4477153,34 33,33.5522847 33,33 L33,24 C33,22.8954305 33.8954305,22 35,22 L37,22 C38.1045695,22 39,22.8954305 39,24 L39,33 C39,33.5522847 38.5522847,34 38,34 Z M35,32 L37,32 L37,24 L35,24 L35,32 Z" id="Shape" fill="#428DFF"/><path d="M30,34 L26,34 C25.4477153,34 25,33.5522847 25,33 L25,28 C25,26.8954305 25.8954305,26 27,26 L29,26 C30.1045695,26 31,26.8954305 31,28 L31,33 C31,33.5522847 30.5522847,34 30,34 Z M27,32 L29,32 L29,28 L27,28 L27,32 Z" id="Shape" fill="#428DFF"/><path d="M49,34 L23,34 C22.4477153,34 22,33.5522847 22,33 C22,32.4477153 22.4477153,32 23,32 L49,32 C49.5522847,32 50,32.4477153 50,33 C50,33.5522847 49.5522847,34 49,34 Z" id="Shape" fill="#428DFF"/></g></g></svg>
