<?xml version="1.0" encoding="UTF-8"?>
<svg xmlns="http://www.w3.org/2000/svg" xmlns:xlink="http://www.w3.org/1999/xlink" width="512" height="512" viewBox="0 0 60 61" version="1.1"><!-- Generator: Sketch 51.3 (57544) - http://www.bohemiancoding.com/sketch --><title>024 - Education</title><desc>Created with Sketch.</desc><defs/><g id="Page-1" stroke="none" stroke-width="1" fill="none" fill-rule="evenodd"><g id="024---Education" transform="translate(-1.000000, -1.000000)" fill-rule="nonzero"><path d="M47.26,38.71 C45.9803538,41.6319437 45.5006323,44.8415908 45.87,48.01 C46.0951005,50.0721875 46.5033794,52.1102353 47.09,54.1 C47.4048963,55.1305317 47.802868,56.1338218 48.28,57.1 C48.8718004,58.0090608 49.4061765,58.9542385 49.88,59.93 L24.78,60 L24.78,59.99 C24.7,59.69 23.19,53.81 19.85,52.3 C19.23,52.52 18.57,52.74 17.9,52.97 C15.6789002,53.7404523 13.4191713,54.3946722 11.13,54.93 C10.4993821,55.0806865 9.83512584,54.9878335 9.27,54.67 C8.62676625,54.2742562 8.14753634,53.660132 7.92,52.94 C7.65806229,52.2276891 7.56229323,51.4649569 7.64,50.71 C7.87036773,49.9391054 7.94848689,49.1307419 7.87,48.33 C7.61,47.32 6.65,47.07 5.89,46.53 C5.27,46.09 6.38,44.68 6.38,44.68 C6.38,44.68 5.2,43.81 4.78,43.43 C4.34,43.07 4.96,42.45 5.51,41.28 C5.73694079,40.7719796 5.80323378,40.2067446 5.7,39.66 C5.49,38.59 3.87,38.18 3.07,37.59 C2.69,37.31 2.08,36.89 2.01,36.38 C1.9,35.67 2.74,34.67 3.15,34.17 C4.89454657,31.9217816 6.38996718,29.4908848 7.61,26.92 C7.77010631,26.6486227 7.86589137,26.3441631 7.89,26.03 C7.87,24.6 5.8,24.01 5.61,22.62 C5.58022555,22.2120559 5.65239212,21.803112 5.82,21.43 C6.39667192,20.2042401 6.89109856,18.9414478 7.3,17.65 C7.54612792,16.4653226 7.86336869,15.2965408 8.25,14.15 C9.08859812,11.8496676 10.3808376,9.74127689 12.05,7.95 C14.5,5.36 18.12,4.08 21.54,3.4 C24.5813721,2.73504394 27.6655865,2.28393999 30.77,2.05 C30.87,2.04 30.97,2.04 31.07,2.03 C37.47,1.71 42.53,3.88 47.49,7.76 C50.1927291,9.77631392 52.1683037,12.6151058 53.12,15.85 C53.8451888,18.5213389 54.1852867,21.2825294 54.13,24.05 C54.110834,26.7831121 53.3129958,29.4541358 51.83,31.75 C50.34,34.1 48.39,36.14 47.26,38.71 Z" id="Shape" fill="#A4C2F7"/><path d="M44.26,38.71 C42.9803538,41.6319437 42.5006323,44.8415908 42.87,48.01 C43.0951005,50.0721875 43.5033794,52.1102353 44.09,54.1 C44.4048963,55.1305317 44.802868,56.1338218 45.28,57.1 C45.8718004,58.0090608 46.4061765,58.9542385 46.88,59.93 L27.65,59.98 L24.78,59.99 C24.71,59.72 23.5,55.02 20.87,52.93 C20.5569122,52.679263 20.2143771,52.4676972 19.85,52.3 C19.82,52.31 19.8,52.32 19.77,52.33 C19.17,52.54 18.54,52.75 17.9,52.97 C17.89,52.96 17.87,52.95 17.86,52.94 C17.5556688,52.6794682 17.215538,52.4639398 16.85,52.3 C15.16,52.89 13.21,53.54 11.43,54.07 C10.67,54.3 9.94,54.5 9.27,54.67 C8.62676625,54.2742562 8.14753634,53.660132 7.92,52.94 C7.65806229,52.2276891 7.56229323,51.4649569 7.64,50.71 C7.87036773,49.9391054 7.94848689,49.1307419 7.87,48.33 C7.61,47.32 6.65,47.07 5.89,46.53 C5.27,46.09 6.38,44.68 6.38,44.68 C6.38,44.68 5.2,43.81 4.78,43.43 C4.34,43.07 4.96,42.45 5.51,41.28 C5.73694079,40.7719796 5.80323378,40.2067446 5.7,39.66 C5.49,38.59 3.87,38.18 3.07,37.59 C2.69,37.31 2.08,36.89 2.01,36.38 C1.9,35.67 2.74,34.67 3.15,34.17 C4.89454657,31.9217816 6.38996718,29.4908848 7.61,26.92 C7.77010631,26.6486227 7.86589137,26.3441631 7.89,26.03 C7.87,24.6 5.8,24.01 5.61,22.62 C5.58022555,22.2120559 5.65239212,21.803112 5.82,21.43 C6.39667192,20.2042401 6.89109856,18.9414478 7.3,17.65 C7.54612792,16.4653226 7.86336869,15.2965408 8.25,14.15 C9.08859812,11.8496676 10.3808376,9.74127689 12.05,7.95 C14.5,5.36 18.12,4.08 21.54,3.4 C24.5813721,2.73504394 27.6655865,2.28393999 30.77,2.05 C31.22,2.08 31.66,2.12 32.09,2.18 C36.6646239,2.84104823 40.9613464,4.77457335 44.49,7.76 C47.1927291,9.77631392 49.1683037,12.6151058 50.12,15.85 C50.8451888,18.5213389 51.1852867,21.2825294 51.13,24.05 C51.110834,26.7831121 50.3129958,29.4541358 48.83,31.75 C47.34,34.1 45.39,36.14 44.26,38.71 Z" id="Shape" fill="#FFFFFF"/><path d="M44.26,38.71 C42.9803538,41.6319437 42.5006323,44.8415908 42.87,48.01 C43.0951005,50.0721875 43.5033794,52.1102353 44.09,54.1 C44.4048963,55.1305317 44.802868,56.1338218 45.28,57.1 C45.8718004,58.0090608 46.4061765,58.9542385 46.88,59.93 L27.65,59.98 C27.55,59.6 26.03,53.8 22.72,52.3 C22.13,52.51 21.51,52.72 20.87,52.93 C20.8385311,52.9475899 20.8049188,52.9610348 20.77,52.97 C20.4691967,52.7096627 20.1323908,52.4941069 19.77,52.33 C19.75,52.32 19.74,52.31 19.72,52.3 C19.13,52.51 18.5,52.72 17.86,52.94 C15.91,53.59 13.82,54.25 12.14,54.67 C11.8682142,54.5157011 11.6274621,54.3122486 11.43,54.07 C11.1453175,53.7384628 10.9279367,53.3546498 10.79,52.94 C10.5280623,52.2276891 10.4322932,51.4649569 10.51,50.71 C10.7403677,49.9391054 10.8184869,49.1307419 10.74,48.33 C10.48,47.32 9.52,47.07 8.76,46.53 C8.14,46.09 9.25,44.68 9.25,44.68 C9.25,44.68 8.07,43.81 7.65,43.43 C7.21,43.07 7.83,42.45 8.38,41.28 C8.60694079,40.7719796 8.67323378,40.2067446 8.57,39.66 C8.36,38.59 6.74,38.18 5.94,37.59 C5.56,37.31 4.95,36.89 4.88,36.38 C4.77,35.67 5.61,34.67 6.02,34.17 C7.76454657,31.9217816 9.25996718,29.4908848 10.48,26.92 C10.6401063,26.6486227 10.7358914,26.3441631 10.76,26.03 C10.74,24.6 8.67,24.01 8.48,22.62 C8.45022555,22.2120559 8.52239212,21.803112 8.69,21.43 C9.26667192,20.2042401 9.76109856,18.9414478 10.17,17.65 C10.4161279,16.4653226 10.7333687,15.2965408 11.12,14.15 C11.9585981,11.8496676 13.2508376,9.74127689 14.92,7.95 C17.37,5.36 20.99,4.08 24.41,3.4 C26.9456224,2.85244071 29.5095166,2.44515544 32.09,2.18 C36.6646239,2.84104823 40.9613464,4.77457335 44.49,7.76 C47.1927291,9.77631392 49.1683037,12.6151058 50.12,15.85 C50.8451888,18.5213389 51.1852867,21.2825294 51.13,24.05 C51.110834,26.7831121 50.3129958,29.4541358 48.83,31.75 C47.34,34.1 45.39,36.14 44.26,38.71 Z" id="Shape" fill="#E8EDFC"/><path d="M55.0000565,15.19 L55,26.54 C55.0085704,28.24634 54.0415225,29.8075981 52.51,30.56 C51.9220937,30.8497069 51.2754113,31.0002573 50.62,31 L37.23,31 L33.3,30.52 C31.8107389,29.7521889 30.8763918,28.2155356 30.88,26.54 L30.8799896,15.19 L55.0000565,15.19 Z" id="Shape" fill="#7FACFA"/><path d="M52.0000565,15.19 L52,26.54 C52.0085704,28.24634 51.0415225,29.8075981 49.51,30.56 C48.9220937,30.8497069 48.2754113,31.0002573 47.62,31 L37.23,31 L33.3,30.52 C31.8107389,29.7521889 30.8763918,28.2155356 30.88,26.54 L30.8799896,15.19 L52.0000565,15.19 Z" id="Shape" fill="#A4C2F7"/><path d="M59.43,13 L43.5,21.87 C43.1883484,22.0400264 42.8116516,22.0400264 42.5,21.87 L42.4,21.81 L26.57,13 C26.216583,12.7908428 25.9998142,12.4106706 25.9998142,12 C25.9998142,11.5893294 26.216583,11.2091572 26.57,11 L40.6,3.19 L42.5,2.13 C42.8116516,1.95997363 43.1883484,1.95997363 43.5,2.13 L59.43,11 C59.783417,11.2091572 60.0001858,11.5893294 60.0001858,12 C60.0001858,12.4106706 59.783417,12.7908428 59.43,13 Z" id="Shape" fill="#A4C2F7"/><path d="M56.43,14 L42.4,21.81 L26.57,13 C26.216583,12.7908428 25.9998142,12.4106706 25.9998142,12 C25.9998142,11.5893294 26.216583,11.2091572 26.57,11 L40.6,3.19 L56.43,12 C56.783417,12.2091572 57.0001858,12.5893294 57.0001858,13 C57.0001858,13.4106706 56.783417,13.7908428 56.43,14 Z" id="Shape" fill="#E8EDFC"/><rect id="Rectangle-path" fill="#E8EDFC" x="32" y="30" width="6" height="7" rx="3"/><ellipse id="Oval" fill="#A4C2F7" cx="43" cy="12" rx="4" ry="2"/><path d="M4.885,21.074 C5.305,19.983 5.811,19.033 6.126,18.107 C6.204,17.877 6.272,17.649 6.326,17.423 L6.511,16.632 C6.636,16.1 6.767,15.558 6.923,15.012 C7.56346558,12.8108928 8.59047178,10.7413043 9.956,8.9 C10.3793703,8.32910856 10.8358188,7.78350741 11.323,7.266 L12.777,8.638 C12.3440873,9.09899293 11.9384,9.58481605 11.562,10.093 C10.3407465,11.740536 9.42118943,13.5915001 8.846,15.56 C8.705,16.06 8.581,16.567 8.458,17.09 L8.273,17.881 C8.201,18.181 8.114,18.474 8.018,18.756 C7.628,19.883 7.108,20.856 6.754,21.786 L4.885,21.074 Z" id="Shape" fill="#FFFFFF"/><path d="M7.513,16.739 C6.97947131,16.6175667 6.44660839,16.9443893 6.313,17.475 C5.90884796,18.7022696 5.43200475,19.9043953 4.885,21.075 L6.754,21.787 C7.33681113,20.5422809 7.8378732,19.2608981 8.254,17.951 C8.31771314,17.6919414 8.27527176,17.4181642 8.1361146,17.1905549 C7.99695743,16.9629457 7.77262226,16.8003758 7.513,16.739 Z" id="Shape" fill="#428DFF"/><path d="M12.777,8.636 L11.323,7.264 C10.8357572,7.78215357 10.3793077,8.32842388 9.956,8.9 C9.74466667,9.18266667 9.54266667,9.47133333 9.35,9.766 C9.19577342,9.98986572 9.14146537,10.2677355 9.2000561,10.5331951 C9.25864684,10.7986548 9.42487134,11.0278498 9.659,11.166 C10.1217884,11.4363395 10.7146211,11.3057596 11.021,10.866 C11.193,10.5993333 11.3733333,10.3416667 11.562,10.093 C11.9383376,9.58413147 12.3440261,9.09763922 12.777,8.636 Z" id="Shape" fill="#428DFF"/><path d="M7.428,13.5 C7.32893401,13.7585724 7.33467447,14.0455955 7.444,14.3 L7.544,14.466 C7.58465947,14.5204844 7.63280027,14.5689618 7.687,14.61 C7.73213663,14.6547458 7.78370602,14.6924959 7.84,14.722 C7.89969256,14.7527353 7.96151879,14.7791368 8.025,14.801 C8.27732655,14.8750857 8.54777802,14.8570083 8.788,14.75 C8.90019081,14.6936515 9.00170824,14.6181902 9.088,14.527 C9.35003296,14.2456908 9.424242,13.837541 9.278,13.482 C9.22440304,13.3633266 9.14988143,13.2552703 9.058,13.163 C8.9680284,13.0679635 8.86078575,12.9909252 8.742,12.936 C8.49819435,12.82929 8.22203842,12.8235368 7.974,12.92 C7.72370365,13.0352565 7.52794474,13.2432056 7.428,13.5 Z" id="Shape" fill="#428DFF"/><path d="M10.511,56 C8.86133749,55.9693354 7.42609992,54.8626511 6.977,53.275 C6.6618426,52.4141982 6.54959663,51.4922755 6.649,50.581 C6.682,50.318 6.74,50.05 6.798,49.781 C6.91957463,49.3932994 6.95372661,48.9834757 6.898,48.581 C6.817,48.267 6.586,48.111 5.998,47.774 C5.764,47.641 5.527,47.505 5.305,47.349 C4.97992342,47.1169696 4.76529209,46.7608192 4.712,46.365 C4.67385435,45.8622176 4.78741543,45.359553 5.038,44.922 C4.697,44.661 4.324,44.367 4.108,44.172 C3.184,43.416 3.796,42.333 4.163,41.687 C4.297,41.449 4.454,41.174 4.603,40.854 C4.74073439,40.5365382 4.78009658,40.1850652 4.716,39.845 C4.666,39.586 3.941,39.216 3.509,38.995 C3.14677307,38.8238802 2.79926375,38.6232011 2.47,38.395 C1.75369155,37.9893367 1.23074833,37.3125018 1.019,36.517 C0.86,35.488 1.619,34.46 2.342,33.579 C4.05427497,31.3725891 5.52219196,28.9869725 6.72,26.464 C6.79665216,26.3279802 6.85387471,26.1818944 6.89,26.03 C6.89,25.755 6.565,25.439 6.077,24.991 C5.33779367,24.4453722 4.82013234,23.6514828 4.619,22.755 C4.56307696,22.1851159 4.65324528,21.610379 4.881,21.085 C5.07679653,20.5743817 5.64645555,20.3157519 6.159743,20.5044404 C6.67303045,20.6931289 6.93954413,21.2591424 6.758,21.775 C6.66100373,21.996111 6.60704083,22.2336834 6.599,22.475 C6.643,22.799 7.025,23.149 7.429,23.52 C8.25493667,24.1025488 8.78786015,25.0144644 8.89,26.02 C8.8697742,26.4940731 8.73602603,26.9563617 8.5,27.368 C7.24784001,30.0034832 5.71353526,32.4953873 3.924,34.8 C3.162,35.731 3,36.1 3,36.249 C3.18487589,36.4288287 3.3857006,36.5914967 3.6,36.735 C3.8610164,36.9170713 4.13661917,37.0772821 4.424,37.214 C5.277,37.65 6.446,38.248 6.686,39.468 C6.82918406,40.2237094 6.73595159,41.0051861 6.419,41.706 C6.245,42.076 6.065,42.396 5.908,42.672 C5.859,42.758 5.808,42.854 5.757,42.941 C6.172,43.275 6.738,43.699 6.978,43.875 C7.19568419,44.0363089 7.33859797,44.2790429 7.37403559,44.5476525 C7.40947321,44.8162621 7.33440129,45.087755 7.166,45.3 C7.01761396,45.493007 6.88833948,45.6999801 6.78,45.918 C6.849,45.958 6.918,45.998 6.988,46.037 C7.87254397,46.4174365 8.54781232,47.1638818 8.838,48.082 C8.98493135,48.7872637 8.95538984,49.5179007 8.752,50.209 C8.706,50.418 8.659,50.627 8.632,50.836 C8.57367075,51.4411271 8.65403967,52.0515889 8.867,52.621 C9.08790242,53.5427662 9.99373144,54.1286061 10.925,53.952 C13.8392719,53.2514045 16.7107073,52.3832961 19.525,51.352 C19.862616,51.2348169 20.2371025,51.3066512 20.507394,51.5404437 C20.7776856,51.7742361 20.9027185,52.1344681 20.835394,52.4854437 C20.7680696,52.8364192 20.518616,53.1248169 20.181,53.242 C17.2866763,54.3026468 14.3325972,55.1925101 11.334,55.907 C11.063591,55.9661968 10.7878001,55.9973615 10.511,56 Z M5.411,42.66 L5.442,42.688 L5.411,42.66 Z" id="Shape" fill="#428DFF"/><path d="M12.05,8.95 C11.6505745,8.95013686 11.2893784,8.71257247 11.1313026,8.34575817 C10.9732267,7.97894386 11.0485947,7.55324547 11.323,7.263 C13.558,4.9 16.836,3.316 21.345,2.419 C24.5307746,1.72073844 27.7634281,1.25682993 31.017,1.031 C34.2471898,0.838982711 37.4809773,1.34231186 40.5,2.507 C40.8421876,2.62889783 41.0913625,2.92676925 41.1509015,3.28510779 C41.2104405,3.64344634 41.070979,4.00589084 40.7865964,4.23189513 C40.5022138,4.45789943 40.1176391,4.5119165 39.782,4.373 C37.0241315,3.31278261 34.0715247,2.85420798 31.122,3.028 C27.9659342,3.24976892 24.8302679,3.7016364 21.74,4.38 C17.704,5.18 14.689,6.615 12.776,8.637 C12.5872672,8.83662757 12.3247202,8.94981934 12.05,8.95 Z" id="Shape" fill="#428DFF"/><path d="M24.78,61 C24.3194886,60.9998779 23.9186017,60.6852787 23.809,60.238 C23.42,58.657 21.879,54.314 19.438,53.211 C19.0639436,53.0419148 18.8312137,52.6614066 18.8510746,52.25139 C18.8709354,51.8413735 19.1393525,51.4851405 19.528,51.353 C20.572,50.999 21.517,50.668 22.261,50.408 C22.952,50.167 23.473,49.985 23.744,49.898 C27.902,48.583 28.744,47.082 28.721,46.053 C28.714833,45.7874245 28.8145893,45.530309 28.9982574,45.3383861 C29.1819255,45.1464632 29.43441,45.035507 29.7,45.03 C29.965898,45.0208325 30.2242753,45.1191834 30.4167754,45.3028394 C30.6092755,45.4864954 30.7196608,45.7399649 30.723,46.006 C30.781,48.498 28.639,50.449 24.354,51.806 C24.096,51.889 23.592,52.065 22.923,52.298 L22.023,52.614 C23.6713886,54.4428529 24.8738065,56.6286317 25.536,59 L48.218,58.937 L48.151,58.837 C47.8629147,58.4221101 47.6039597,57.987734 47.376,57.537 C46.8786739,56.5263955 46.4636619,55.4773282 46.135,54.4 C45.5282684,52.3530291 45.1072324,50.2555471 44.877,48.133 C44.4831396,44.7875333 44.9892182,41.3975661 46.343,38.313 C47.141408,36.6438155 48.1288779,35.0718493 49.286,33.628 C49.866,32.846 50.466,32.038 50.986,31.217 C51.2156801,30.8619608 51.4259873,30.4947578 51.616,30.117 C51.8653412,29.6276155 52.4627164,29.4309257 52.9540295,29.676445 C53.4453425,29.9219642 53.6466824,30.5177882 53.405,31.011 C53.1837079,31.4512287 52.939369,31.8794893 52.673,32.294 C52.116,33.171 51.494,34.01 50.893,34.82 C49.8274731,36.143142 48.9162569,37.5834407 48.177,39.113 C46.9654389,41.8709237 46.5121643,44.9023057 46.864,47.894 C47.0796037,49.8974849 47.4752015,51.8774821 48.046,53.81 C48.3458821,54.7875634 48.7234175,55.7395946 49.175,56.657 C49.3663284,57.0307119 49.5824791,57.3911857 49.822,57.736 C50.2467579,58.3190683 50.5880507,58.9585717 50.836,59.636 C50.9314293,59.9394437 50.8767998,60.2701879 50.6888608,60.5268273 C50.5009218,60.7834667 50.202095,60.9353833 49.884,60.936 L24.784,61.006 L24.78,61 Z" id="Shape" fill="#428DFF"/><path d="M11.194,19.567 C10.8888508,19.5670321 10.6003862,19.4277344 10.4106651,19.1887325 C10.2209439,18.9497305 10.1507311,18.6371832 10.22,18.34 L10.32,17.907 C10.5131488,16.9905545 10.7602456,16.086314 11.06,15.199 C11.7556722,13.274706 12.8328806,11.5107644 14.227,10.013 C15.7595511,8.5356103 17.6468677,7.47795529 19.707,6.942 C20.2352604,6.78073285 20.7942329,7.07823964 20.9555,7.6065 C21.1167671,8.13476036 20.8192604,8.69373285 20.291,8.855 C18.56399,9.29262258 16.9772482,10.1637817 15.681,11.386 C14.4731135,12.686459 13.5395478,14.2168944 12.936,15.886 C12.6664575,16.6962732 12.4434274,17.5212841 12.268,18.357 L12.168,18.79 C12.064068,19.2443274 11.6600634,19.5666185 11.194,19.567 Z" id="Shape" fill="#A4C2F7"/><circle id="Oval" fill="#A4C2F7" cx="10" cy="22" r="1"/><path d="M43,23 C42.6543792,22.9995954 42.3146079,22.9107797 42.013,22.742 L26.083,13.87 C25.4126023,13.4860309 24.9990392,12.7725706 24.9990392,12 C24.9990392,11.2274294 25.4126023,10.5139691 26.083,10.13 L42.012,1.257 C42.6254039,0.913031705 43.3735961,0.913031705 43.987,1.257 L59.917,10.13 C60.5873977,10.5139691 61.0009608,11.2274294 61.0009608,12 C61.0009608,12.7725706 60.5873977,13.4860309 59.917,13.87 L43.988,22.743 C43.685936,22.9114302 43.3458487,22.9998942 43,23 Z M43.015,3 L27.057,11.877 C27.0207803,11.9075908 26.9998846,11.9525904 26.9998846,12 C26.9998846,12.0474096 27.0207803,12.0924092 27.057,12.123 L42.985,21 L58.943,12.127 C58.9792197,12.0964092 59.0001154,12.0514096 59.0001154,12.004 C59.0001154,11.9565904 58.9792197,11.9115908 58.943,11.881 L43.015,3 Z" id="Shape" fill="#428DFF"/><path d="M33.3,31.52 C33.1421859,31.5199995 32.9866124,31.4826481 32.846,31.411 C31.0169545,30.4775652 29.8696899,28.5934365 29.88,26.54 L29.88,15.69 C29.88,15.1377153 30.3277153,14.69 30.88,14.69 C31.4322847,14.69 31.88,15.1377153 31.88,15.69 L31.88,26.54 C31.8713064,27.8409121 32.5961893,29.0357697 33.754,29.629 C34.1659596,29.8389113 34.3803028,30.3038699 34.2723653,30.7534507 C34.1644279,31.2030316 33.7623564,31.5199985 33.3,31.52 Z" id="Shape" fill="#428DFF"/><path d="M50.62,32 L37.23,32 C36.6777153,32 36.23,31.5522847 36.23,31 C36.23,30.4477153 36.6777153,30 37.23,30 L50.62,30 C51.1224606,30.0003439 51.6182588,29.8850341 52.069,29.663 C53.2613797,29.0818409 54.0129031,27.8664044 54,26.54 L54,15.69 C54,15.1377153 54.4477153,14.69 55,14.69 C55.5522847,14.69 56,15.1377153 56,15.69 L56,26.54 C56.0166264,28.6313724 54.8284891,30.5457017 52.947,31.459 C52.2233393,31.8161104 51.4269765,32.0012554 50.62,32 Z" id="Shape" fill="#428DFF"/><path d="M43,15 C40.149,15 38,13.71 38,12 C38,10.29 40.149,9 43,9 C45.851,9 48,10.29 48,12 C48,13.71 45.851,15 43,15 Z M43,11 C41.064,11 40,11.751 40,12 C40,12.249 41.064,13 43,13 C44.936,13 46,12.249 46,12 C46,11.751 44.936,11 43,11 Z" id="Shape" fill="#428DFF"/><path d="M35,31 C34.4477153,31 34,30.5522847 34,30 L34,18 C34.0000566,17.7348052 34.1054506,17.4804927 34.293,17.293 L39.093,12.493 C39.4853789,12.1140278 40.1090848,12.1194476 40.4948186,12.5051814 C40.8805524,12.8909152 40.8859722,13.5146211 40.507,13.907 L36,18.414 L36,30 C36,30.5522847 35.5522847,31 35,31 Z" id="Shape" fill="#428DFF"/><path d="M35,38 C32.790861,38 31,36.209139 31,34 L31,33 C31,30.790861 32.790861,29 35,29 C37.209139,29 39,30.790861 39,33 L39,34 C39,36.209139 37.209139,38 35,38 Z M35,31 C33.8954305,31 33,31.8954305 33,33 L33,34 C33,35.1045695 33.8954305,36 35,36 C36.1045695,36 37,35.1045695 37,34 L37,33 C37,31.8954305 36.1045695,31 35,31 Z" id="Shape" fill="#428DFF"/></g></g></svg>
