<?xml version="1.0" encoding="UTF-8"?>
<svg xmlns="http://www.w3.org/2000/svg" xmlns:xlink="http://www.w3.org/1999/xlink" width="512" height="512" viewBox="0 0 60 60" version="1.1"><!-- Generator: Sketch 51.3 (57544) - http://www.bohemiancoding.com/sketch --><title>032 - Knowledge</title><desc>Created with Sketch.</desc><defs/><g id="Page-1" stroke="none" stroke-width="1" fill="none" fill-rule="evenodd"><g id="032---Knowledge" transform="translate(-1.000000, -1.000000)" fill-rule="nonzero"><path d="M47.26,38.71 C45.9803538,41.6319437 45.5006323,44.8415908 45.87,48.01 C46.0951005,50.0721875 46.5033794,52.1102353 47.09,54.1 C47.4066015,55.1331686 47.8045116,56.1396471 48.28,57.11 C48.8738098,58.0143772 49.4082676,58.956359 49.88,59.93 L24.78,60 L24.78,59.99 C24.7,59.69 23.19,53.81 19.85,52.3 C19.23,52.52 18.57,52.74 17.9,52.97 C15.6789002,53.7404523 13.4191713,54.3946722 11.13,54.93 C10.4993821,55.0806865 9.83512584,54.9878335 9.27,54.67 C8.62676625,54.2742562 8.14753634,53.660132 7.92,52.94 C7.65806229,52.2276891 7.56229323,51.4649569 7.64,50.71 C7.87036773,49.9391054 7.94848689,49.1307419 7.87,48.33 C7.61,47.32 6.65,47.07 5.89,46.53 C5.27,46.09 6.38,44.68 6.38,44.68 C6.38,44.68 5.2,43.81 4.78,43.44 C4.34,43.07 4.96,42.45 5.51,41.28 C5.73694079,40.7719796 5.80323378,40.2067446 5.7,39.66 C5.49,38.59 3.87,38.19 3.07,37.59 C2.69,37.31 2.08,36.89 2.01,36.38 C1.9,35.67 2.74,34.67 3.15,34.17 C4.89454657,31.9217816 6.38996718,29.4908848 7.61,26.92 C7.77010631,26.6486227 7.86589137,26.3441631 7.89,26.03 C7.87,24.6 5.8,24.01 5.61,22.62 C5.58022555,22.2120559 5.65239212,21.803112 5.82,21.43 C6.39667192,20.2042401 6.89109856,18.9414478 7.3,17.65 C7.54612792,16.4653226 7.86336869,15.2965408 8.25,14.15 C9.08859812,11.8496676 10.3808376,9.74127689 12.05,7.95 C14.5,5.36 18.12,4.08 21.54,3.4 C24.5813721,2.73504394 27.6655865,2.28393999 30.77,2.05 C30.87,2.04 30.97,2.04 31.07,2.03 C37.47,1.71 42.53,3.88 47.49,7.77 C50.1943357,9.78046229 52.1705976,12.6167315 53.12,15.85 C53.8445851,18.5214574 54.1846722,21.2825609 54.13,24.05 C54.110834,26.7831121 53.3129958,29.4541358 51.83,31.75 C50.34,34.11 48.39,36.14 47.26,38.71 Z" id="Shape" fill="#A4C2F7"/><path d="M44.26,38.71 C42.9803538,41.6319437 42.5006323,44.8415908 42.87,48.01 C43.0951005,50.0721875 43.5033794,52.1102353 44.09,54.1 C44.4066015,55.1331686 44.8045116,56.1396471 45.28,57.11 C45.8738098,58.0143772 46.4082676,58.956359 46.88,59.93 L27.65,59.98 L24.78,59.99 C24.71,59.72 23.5,55.02 20.87,52.93 C20.5569122,52.679263 20.2143771,52.4676972 19.85,52.3 C19.82,52.31 19.8,52.32 19.77,52.33 C19.17,52.54 18.54,52.75 17.9,52.97 C17.89,52.96 17.87,52.95 17.86,52.94 C17.5556688,52.6794682 17.215538,52.4639398 16.85,52.3 C15.16,52.89 13.21,53.54 11.43,54.07 C10.67,54.3 9.94,54.5 9.27,54.67 C8.62676625,54.2742562 8.14753634,53.660132 7.92,52.94 C7.65806229,52.2276891 7.56229323,51.4649569 7.64,50.71 C7.87036773,49.9391054 7.94848689,49.1307419 7.87,48.33 C7.61,47.32 6.65,47.07 5.89,46.53 C5.27,46.09 6.38,44.68 6.38,44.68 C6.38,44.68 5.2,43.81 4.78,43.44 C4.34,43.07 4.96,42.45 5.51,41.28 C5.73694079,40.7719796 5.80323378,40.2067446 5.7,39.66 C5.49,38.59 3.87,38.19 3.07,37.59 C2.69,37.31 2.08,36.89 2.01,36.38 C1.9,35.67 2.74,34.67 3.15,34.17 C4.89454657,31.9217816 6.38996718,29.4908848 7.61,26.92 C7.77010631,26.6486227 7.86589137,26.3441631 7.89,26.03 C7.87,24.6 5.8,24.01 5.61,22.62 C5.58022555,22.2120559 5.65239212,21.803112 5.82,21.43 C6.39667192,20.2042401 6.89109856,18.9414478 7.3,17.65 C7.54612792,16.4653226 7.86336869,15.2965408 8.25,14.15 C9.08859812,11.8496676 10.3808376,9.74127689 12.05,7.95 C14.5,5.36 18.12,4.08 21.54,3.4 C24.5813721,2.73504394 27.6655865,2.28393999 30.77,2.05 C31.22,2.08 31.66,2.12 32.09,2.18 C36.6667113,2.84036982 40.9644787,4.7778311 44.49,7.77 C47.1943357,9.78046229 49.1705976,12.6167315 50.12,15.85 C50.8445851,18.5214574 51.1846722,21.2825609 51.13,24.05 C51.110834,26.7831121 50.3129958,29.4541358 48.83,31.75 C47.34,34.11 45.39,36.14 44.26,38.71 Z" id="Shape" fill="#FFFFFF"/><path d="M44.26,38.71 C42.9803538,41.6319437 42.5006323,44.8415908 42.87,48.01 C43.0951005,50.0721875 43.5033794,52.1102353 44.09,54.1 C44.4066015,55.1331686 44.8045116,56.1396471 45.28,57.11 C45.8738098,58.0143772 46.4082676,58.956359 46.88,59.93 L27.65,59.98 C27.55,59.6 26.03,53.8 22.72,52.3 C22.13,52.51 21.51,52.72 20.87,52.93 C20.8385311,52.9475899 20.8049188,52.9610348 20.77,52.97 C20.4691967,52.7096627 20.1323908,52.4941069 19.77,52.33 C19.75,52.32 19.74,52.31 19.72,52.3 C19.13,52.51 18.5,52.72 17.86,52.94 C15.91,53.59 13.82,54.25 12.14,54.67 C11.8682142,54.5157011 11.6274621,54.3122486 11.43,54.07 C11.1453175,53.7384628 10.9279367,53.3546498 10.79,52.94 C10.5280623,52.2276891 10.4322932,51.4649569 10.51,50.71 C10.7403677,49.9391054 10.8184869,49.1307419 10.74,48.33 C10.48,47.32 9.52,47.07 8.76,46.53 C8.14,46.09 9.25,44.68 9.25,44.68 C9.25,44.68 8.07,43.81 7.65,43.44 C7.21,43.07 7.83,42.45 8.38,41.28 C8.60694079,40.7719796 8.67323378,40.2067446 8.57,39.66 C8.36,38.59 6.74,38.19 5.94,37.59 C5.56,37.31 4.95,36.89 4.88,36.38 C4.77,35.67 5.61,34.67 6.02,34.17 C7.76454657,31.9217816 9.25996718,29.4908848 10.48,26.92 C10.6401063,26.6486227 10.7358914,26.3441631 10.76,26.03 C10.74,24.6 8.67,24.01 8.48,22.62 C8.45022555,22.2120559 8.52239212,21.803112 8.69,21.43 C9.26667192,20.2042401 9.76109856,18.9414478 10.17,17.65 C10.4161279,16.4653226 10.7333687,15.2965408 11.12,14.15 C11.9585981,11.8496676 13.2508376,9.74127689 14.92,7.95 C17.37,5.36 20.99,4.08 24.41,3.4 C26.9456224,2.85244071 29.5095166,2.44515544 32.09,2.18 C36.6667113,2.84036982 40.9644787,4.7778311 44.49,7.77 C47.1943357,9.78046229 49.1705976,12.6167315 50.12,15.85 C50.8445851,18.5214574 51.1846722,21.2825609 51.13,24.05 C51.110834,26.7831121 50.3129958,29.4541358 48.83,31.75 C47.34,34.11 45.39,36.14 44.26,38.71 Z" id="Shape" fill="#E8EDFC"/><rect id="Rectangle-path" fill="#7FACFA" x="22" y="9" width="38" height="26" rx="2"/><rect id="Rectangle-path" fill="#A4C2F7" x="22" y="9" width="35" height="26" rx="2"/><rect id="Rectangle-path" fill="#7FACFA" x="26" y="13" width="30" height="18" rx="1"/><rect id="Rectangle-path" fill="#A4C2F7" x="26" y="13" width="27" height="18" rx="1"/><circle id="Oval" fill="#E8EDFC" cx="41" cy="7" r="2"/><path d="M4.886,21.074 C5.305,19.983 5.811,19.033 6.126,18.107 C6.204,17.877 6.272,17.649 6.326,17.423 L6.511,16.632 C6.636,16.1 6.767,15.558 6.923,15.012 C7.56346558,12.8108928 8.59047178,10.7413043 9.956,8.9 C10.3793703,8.32910856 10.8358188,7.78350741 11.323,7.266 L12.777,8.638 C12.3440873,9.09899293 11.9384,9.58481605 11.562,10.093 C10.3407465,11.740536 9.42118943,13.5915001 8.846,15.56 C8.705,16.06 8.581,16.567 8.458,17.09 L8.273,17.881 C8.201,18.181 8.114,18.474 8.018,18.756 C7.628,19.883 7.108,20.856 6.754,21.786 L4.886,21.074 Z" id="Shape" fill="#FFFFFF"/><path d="M7.513,16.739 C6.97947131,16.6175667 6.44660839,16.9443893 6.313,17.475 C5.90878275,18.7021054 5.43228273,19.9042078 4.886,21.075 L6.754,21.787 C7.33681113,20.5422809 7.8378732,19.2608981 8.254,17.951 C8.31771314,17.6919414 8.27527176,17.4181642 8.1361146,17.1905549 C7.99695743,16.9629457 7.77262226,16.8003758 7.513,16.739 Z" id="Shape" fill="#428DFF"/><path d="M12.777,8.636 L11.323,7.264 C10.8357572,7.78215357 10.3793077,8.32842388 9.956,8.9 C9.74466667,9.18266667 9.54266667,9.47133333 9.35,9.766 C9.19577342,9.98986572 9.14146537,10.2677355 9.2000561,10.5331951 C9.25864684,10.7986548 9.42487134,11.0278498 9.659,11.166 C10.1217884,11.4363395 10.7146211,11.3057596 11.021,10.866 C11.193,10.5993333 11.3733333,10.3416667 11.562,10.093 C11.9383376,9.58413147 12.3440261,9.09763922 12.777,8.636 Z" id="Shape" fill="#428DFF"/><path d="M7.428,13.5 C7.32893401,13.7585724 7.33467447,14.0455955 7.444,14.3 L7.544,14.466 C7.58465947,14.5204844 7.63280027,14.5689618 7.687,14.61 C7.73213663,14.6547458 7.78370602,14.6924959 7.84,14.722 C7.89969256,14.7527353 7.96151879,14.7791368 8.025,14.801 C8.27732655,14.8750857 8.54777802,14.8570083 8.788,14.75 C8.90034301,14.6938988 9.00190116,14.6184073 9.088,14.527 C9.35003296,14.2456908 9.424242,13.837541 9.278,13.482 C9.22440304,13.3633266 9.14988143,13.2552703 9.058,13.163 C8.9680284,13.0679635 8.86078575,12.9909252 8.742,12.936 C8.49819435,12.82929 8.22203842,12.8235368 7.974,12.92 C7.72370365,13.0352565 7.52794474,13.2432056 7.428,13.5 Z" id="Shape" fill="#428DFF"/><path d="M10.511,56 C8.86133749,55.9693354 7.42609992,54.8626511 6.977,53.275 C6.6618426,52.4141982 6.54959663,51.4922755 6.649,50.581 C6.682,50.318 6.74,50.05 6.798,49.781 C6.91957463,49.3932994 6.95372661,48.9834757 6.898,48.581 C6.817,48.267 6.586,48.111 5.998,47.774 C5.764,47.641 5.527,47.505 5.305,47.349 C4.97992342,47.1169696 4.76529209,46.7608192 4.712,46.365 C4.67385435,45.8622176 4.78741543,45.359553 5.038,44.922 C4.697,44.661 4.324,44.367 4.108,44.172 C3.184,43.416 3.796,42.333 4.163,41.687 C4.297,41.449 4.454,41.174 4.603,40.854 C4.74073439,40.5365382 4.78009658,40.1850652 4.716,39.845 C4.666,39.586 3.941,39.216 3.509,38.995 C3.14677307,38.8238802 2.79926375,38.6232011 2.47,38.395 C1.75369155,37.9893367 1.23074833,37.3125018 1.019,36.517 C0.86,35.488 1.619,34.46 2.342,33.579 C4.05427497,31.3725891 5.52219196,28.9869725 6.72,26.464 C6.79665216,26.3279802 6.85387471,26.1818944 6.89,26.03 C6.89,25.755 6.565,25.439 6.077,24.991 C5.33779367,24.4453722 4.82013234,23.6514828 4.619,22.755 C4.56307696,22.1851159 4.65324528,21.610379 4.881,21.085 C5.07679653,20.5743817 5.64645555,20.3157519 6.159743,20.5044404 C6.67303045,20.6931289 6.93954413,21.2591424 6.758,21.775 C6.66100373,21.996111 6.60704083,22.2336834 6.599,22.475 C6.643,22.799 7.025,23.149 7.429,23.52 C8.25493667,24.1025488 8.78786015,25.0144644 8.89,26.02 C8.8697742,26.4940731 8.73602603,26.9563617 8.5,27.368 C7.24784001,30.0034832 5.71353526,32.4953873 3.924,34.8 C3.162,35.731 3,36.1 3,36.249 C3.18487589,36.4288287 3.3857006,36.5914967 3.6,36.735 C3.8610164,36.9170713 4.13661917,37.0772821 4.424,37.214 C5.277,37.65 6.446,38.248 6.686,39.468 C6.82918406,40.2237094 6.73595159,41.0051861 6.419,41.706 C6.245,42.076 6.065,42.396 5.908,42.672 C5.859,42.758 5.808,42.854 5.757,42.941 C6.172,43.275 6.738,43.699 6.978,43.875 C7.19568419,44.0363089 7.33859797,44.2790429 7.37403559,44.5476525 C7.40947321,44.8162621 7.33440129,45.087755 7.166,45.3 C7.01761396,45.493007 6.88833948,45.6999801 6.78,45.918 C6.849,45.958 6.918,45.998 6.988,46.037 C7.87254397,46.4174365 8.54781232,47.1638818 8.838,48.082 C8.98493135,48.7872637 8.95538984,49.5179007 8.752,50.209 C8.706,50.418 8.659,50.627 8.632,50.836 C8.57367075,51.4411271 8.65403967,52.0515889 8.867,52.621 C9.08968402,53.5415037 9.99415212,54.1264634 10.925,53.952 C13.8392719,53.2514045 16.7107073,52.3832961 19.525,51.352 C19.862616,51.2348169 20.2371025,51.3066512 20.507394,51.5404437 C20.7776856,51.7742361 20.9027185,52.1344681 20.835394,52.4854437 C20.7680696,52.8364192 20.518616,53.1248169 20.181,53.242 C17.2866763,54.3026468 14.3325972,55.1925101 11.334,55.907 C11.063591,55.9661968 10.7878001,55.9973615 10.511,56 Z M5.411,42.66 L5.442,42.688 L5.411,42.66 Z" id="Shape" fill="#428DFF"/><path d="M12.05,8.95 C11.6505745,8.95013686 11.2893784,8.71257247 11.1313026,8.34575817 C10.9732267,7.97894386 11.0485947,7.55324547 11.323,7.263 C13.558,4.9 16.836,3.316 21.345,2.419 C24.5307746,1.72073844 27.7634281,1.25682993 31.017,1.031 C33.1074546,0.909160247 35.2047115,1.0774254 37.249,1.531 C37.7772942,1.66128323 38.1044652,2.19005258 37.9852764,2.7209598 C37.8660876,3.25186702 37.3442873,3.59004208 36.811,3.482 C34.9448318,3.06793484 33.0303355,2.91414247 31.122,3.025 C27.9658563,3.24772178 24.8301867,3.70059241 21.74,4.38 C17.704,5.18 14.689,6.615 12.776,8.637 C12.5872672,8.83662757 12.3247202,8.94981934 12.05,8.95 Z" id="Shape" fill="#428DFF"/><path d="M24.78,61 C24.3194886,60.9998779 23.9186017,60.6852787 23.809,60.238 C23.42,58.657 21.879,54.314 19.438,53.211 C19.0639436,53.0419148 18.8312137,52.6614066 18.8510746,52.25139 C18.8709354,51.8413735 19.1393525,51.4851405 19.528,51.353 C20.572,50.999 21.517,50.668 22.261,50.408 C22.952,50.167 23.473,49.985 23.744,49.898 C27.902,48.583 28.744,47.082 28.721,46.053 C28.7080213,45.5007153 29.1452153,45.0424787 29.6975,45.0295 C30.2497847,45.0165213 30.7080213,45.4537153 30.721,46.006 C30.779,48.498 28.637,50.449 24.352,51.806 C24.094,51.889 23.59,52.065 22.921,52.298 L22.021,52.614 C23.670109,54.4426539 24.87322,56.6284481 25.536,59 L48.218,58.937 L48.151,58.837 C47.8629147,58.4221101 47.6039597,57.987734 47.376,57.537 C46.8786739,56.5263955 46.4636619,55.4773282 46.135,54.4 C45.5282684,52.3530291 45.1072324,50.2555471 44.877,48.133 C44.4955355,44.8988455 44.9571542,41.6210083 46.217,38.618 C46.3545472,38.2882438 46.6575689,38.0569171 47.0119198,38.0111585 C47.3662706,37.9653998 47.7181163,38.112161 47.9349198,38.3961585 C48.1517234,38.680156 48.2005473,39.0582439 48.063,39.388 C46.9367182,42.0704501 46.5233334,44.9985925 46.863,47.888 C47.0785122,49.891827 47.4741111,51.8721643 48.045,53.805 C48.3448821,54.7825634 48.7224175,55.7345946 49.174,56.652 C49.3653284,57.0257119 49.5814791,57.3861857 49.821,57.731 C50.2457579,58.3140683 50.5870507,58.9535717 50.835,59.631 C50.9304293,59.9344437 50.8757998,60.2651879 50.6878608,60.5218273 C50.4999218,60.7784667 50.201095,60.9303833 49.883,60.931 L24.783,61.001 L24.78,61 Z" id="Shape" fill="#428DFF"/><path d="M11.191,19.57 C10.8866019,19.5702902 10.598645,19.4319184 10.4086789,19.1940715 C10.2187128,18.9562246 10.1474235,18.6448024 10.215,18.348 L10.315,17.908 C10.5100814,16.9915212 10.7588434,16.0872964 11.06,15.2 C11.7538539,13.2729537 12.8339185,11.5078955 14.234,10.013 C15.3643369,8.87988385 16.7298751,8.00901189 18.234,7.462 C18.7424968,7.27647712 19.3063039,7.52922764 19.5061172,8.03228068 C19.7059305,8.53533373 19.4692078,9.10605573 18.972,9.32 C17.7422162,9.76138829 16.6235374,10.4657669 15.694,11.384 C14.4789759,12.680501 13.5420938,14.2119101 12.941,15.884 C12.6692165,16.6940852 12.4441794,17.5191102 12.267,18.355 L12.167,18.79 C12.0641043,19.2462493 11.6587081,19.5702339 11.191,19.57 Z" id="Shape" fill="#A4C2F7"/><circle id="Oval" fill="#A4C2F7" cx="10" cy="22" r="1"/><path d="M58,36 L24,36 C22.3431458,36 21,34.6568542 21,33 L21,11 C21,9.34314575 22.3431458,8 24,8 L58,8 C59.6568542,8 61,9.34314575 61,11 L61,33 C61,34.6568542 59.6568542,36 58,36 Z M24,10 C23.4477153,10 23,10.4477153 23,11 L23,33 C23,33.5522847 23.4477153,34 24,34 L58,34 C58.5522847,34 59,33.5522847 59,33 L59,11 C59,10.4477153 58.5522847,10 58,10 L24,10 Z" id="Shape" fill="#428DFF"/><path d="M55,32 L27,32 C25.8954305,32 25,31.1045695 25,30 L25,14 C25,12.8954305 25.8954305,12 27,12 L55,12 C56.1045695,12 57,12.8954305 57,14 L57,30 C57,31.1045695 56.1045695,32 55,32 Z M27,14 L27,30 L55,30 L55,14 L27,14 Z" id="Shape" fill="#428DFF"/><path d="M35,28 C34.4477153,28 34,27.5522847 34,27 L34,19.5 C34,18.6715729 33.3284271,18 32.5,18 C31.6715729,18 31,18.6715729 31,19.5 L31,27 C31,27.5522847 30.5522847,28 30,28 C29.4477153,28 29,27.5522847 29,27 L29,19.5 C29,17.5670034 30.5670034,16 32.5,16 C34.4329966,16 36,17.5670034 36,19.5 L36,27 C36,27.5522847 35.5522847,28 35,28 Z" id="Shape" fill="#FFFFFF"/><path d="M41.5,28 L40,28 C38.8954305,28 38,27.1045695 38,26 L38,18 C38,16.8954305 38.8954305,16 40,16 L41.5,16 C42.9216675,16.0010109 44.2014802,16.8618765 44.7383519,18.1782762 C45.2752236,19.494676 44.9624774,21.0050401 43.947,22 C44.9624774,22.9949599 45.2752236,24.505324 44.7383519,25.8217238 C44.2014802,27.1381235 42.9216675,27.9989891 41.5,28 Z M40,23 L40,26 L41.5,26 C42.3284271,26 42.9999999,25.3284271 42.9999999,24.5 C42.9999999,23.6715729 42.3284271,23 41.5,23 L40,23 Z M40,21 L41.5,21 C42.3284271,21 43,20.3284271 43,19.5 C43,18.6715729 42.3284271,18 41.5,18 L40,18 L40,21 Z" id="Shape" fill="#FFFFFF"/><path d="M52,28 L51,28 C48.790861,28 47,26.209139 47,24 L47,20 C47,17.790861 48.790861,16 51,16 L52,16 C52.5522847,16 53,16.4477153 53,17 C53,17.5522847 52.5522847,18 52,18 L51,18 C49.8954305,18 49,18.8954305 49,20 L49,24 C49,25.1045695 49.8954305,26 51,26 L52,26 C52.5522847,26 53,26.4477153 53,27 C53,27.5522847 52.5522847,28 52,28 Z" id="Shape" fill="#FFFFFF"/><path d="M35,23 L30,23 C29.4477153,23 29,22.5522847 29,22 C29,21.4477153 29.4477153,21 30,21 L35,21 C35.5522847,21 36,21.4477153 36,22 C36,22.5522847 35.5522847,23 35,23 Z" id="Shape" fill="#FFFFFF"/><path d="M41,10 C39.3431458,10 38,8.65685425 38,7 C38,5.34314575 39.3431458,4 41,4 C42.6568542,4 44,5.34314575 44,7 C44,7.79564947 43.6839295,8.55871121 43.1213203,9.12132034 C42.5587112,9.68392948 41.7956495,10 41,10 Z M41,6 C40.4477153,6 40,6.44771525 40,7 C40,7.55228475 40.4477153,8 41,8 C41.5522847,8 42,7.55228475 42,7 C42,6.44771525 41.5522847,6 41,6 Z" id="Shape" fill="#428DFF"/></g></g></svg>
